<?xml version="1.0" encoding="UTF-8"?>
<svg width="56px" height="30px" viewBox="0 0 56 30" version="1.1" xmlns="http://www.w3.org/2000/svg" xmlns:xlink="http://www.w3.org/1999/xlink">
    <!-- Generator: Sketch 51.3 (57544) - http://www.bohemiancoding.com/sketch -->
    <title>Epik Logo</title>
    <desc>Created with Sketch.</desc>
    <defs></defs>
    <g id="Marketing-Pages" stroke="none" stroke-width="1" fill="none" fill-rule="evenodd">
        <g id="Forever-Domains" transform="translate(-270.000000, -20.000000)" fill="#FFFFFF" fill-rule="nonzero">
            <g id="Header">
                <g id="Epik-Logo" transform="translate(270.000000, 20.000000)">
                    <path d="M2.94318182,15.3219697 C2.91136364,15.4818182 2.91136364,15.6098485 2.91136364,15.769697 C2.91136364,19.3833333 5.15,21.5257576 8.0280303,21.5257576 C8.47575758,21.5257576 8.82727273,21.4621212 9.11515152,21.3340909 C10.1386364,20.5984848 11.0977273,19.9590909 11.8015152,19.6075758 L11.9613636,20.1189394 C11.769697,20.8227273 10.5545455,22.1333333 10.1386364,22.4212121 C9.53106061,22.7090909 7.9,23.1886364 6.78106061,23.1886364 C2.81590909,23.1886364 0.00151515152,20.4386364 0.00151515152,16.0257576 C0.00151515152,11.4530303 3.29545455,8.31893939 6.94090909,8.31893939 C9.85075758,8.31893939 12.3454545,10.269697 12.3454545,13.8515152 C12.3454545,14.2356061 12.2492424,14.7151515 12.0257576,14.875 C11.7060606,15.0030303 10.4909091,15.3227273 9.01969697,15.3227273 L2.94318182,15.3227273 L2.94318182,15.3219697 Z M9.33939394,14.1068182 C9.43560606,13.8833333 9.49924242,13.4992424 9.49924242,13.1477273 C9.49924242,11.2287879 8.54015152,9.43787879 6.68484848,9.43787879 C4.03030303,9.43787879 2.975,12.7318182 2.975,14.1068182 L9.33939394,14.1068182 Z" id="Shape"></path>
                    <path d="M18.9325758,10.3333333 L18.9962121,10.3651515 C21.0106061,8.95833333 22.3856061,8.31818182 23.3454545,8.31818182 C26,8.31818182 29.5174242,10.5568182 29.5174242,15.1295455 C29.5174242,20.7893939 24.7522727,23.1878788 21.7787879,23.1878788 C21.1712121,23.1878788 19.8598485,22.6765152 19.1242424,22.1962121 L19.0606061,22.2280303 C19.0606061,24.5621212 19.1242424,26.705303 19.1886364,28.2719697 L22.1628788,29.2636364 L21.875,29.9992424 C20.4356061,29.9992424 19.1568182,29.9674242 17.6856061,29.9674242 C16.5984848,29.9674242 15.4469697,29.9992424 14.3280303,29.9992424 L14.6159091,29.2 L16.2469697,28.3681818 C16.2787879,27.2810606 16.375,24.2431818 16.375,19.5742424 L16.375,10.7166667 L14.5833333,9.75757576 L14.8712121,9.11818182 C15.3825758,8.86212121 17.9409091,8.28712121 19.0606061,8.25454545 L18.9325758,10.3333333 Z M19.0598485,20.9818182 C19.6356061,21.3333333 20.5310606,21.6530303 21.4583333,21.6530303 C24.144697,21.6530303 26.6068182,19.3507576 26.6068182,15.6409091 C26.6068182,12.7310606 24.8477273,10.2045455 22.0340909,10.2045455 C21.2348485,10.2045455 20.2113636,10.5560606 19.0598485,11.3878788 L19.0598485,20.9818182 Z" id="Shape"></path>
                    <path d="M32.2030303,9.24621212 C32.7143939,9.08636364 34.6333333,8.51060606 36.4560606,8.31893939 L36.4560606,14.7787879 C36.4560606,18.3606061 36.4878788,20.2151515 36.519697,21.1106061 L38.7901515,22.069697 L38.5666667,22.805303 C37.4477273,22.805303 36.2325758,22.7734848 34.9848485,22.7734848 C33.9613636,22.7734848 32.9060606,22.805303 31.6590909,22.805303 L31.8825758,22.069697 L33.705303,21.1106061 C33.7371212,20.0234848 33.7689394,17.2734848 33.7689394,14.7151515 L33.7689394,10.6856061 L32.0424242,9.85378788 L32.2030303,9.24621212 Z M35.2090909,1.69924242 C35.6568182,1.85909091 36.5204545,2.81818182 36.8083333,3.49015152 L36.744697,3.74621212 C36.4568182,4.35378788 35.4977273,5.31287879 35.05,5.56893939 L34.7939394,5.63257576 C34.25,5.31287879 33.5151515,4.41742424 33.2272727,3.80984848 L33.2909091,3.55378788 C33.7386364,2.81818182 34.4742424,2.05075758 35.0174242,1.73106061 L35.2090909,1.69924242 Z" id="Shape"></path>
                    <path d="M47.2325758,22.069697 L47.0409091,22.805303 C45.8575758,22.805303 44.6424242,22.7734848 43.3954545,22.7734848 C42.2765152,22.7734848 41.1568182,22.805303 40.0378788,22.805303 L40.2295455,22.1015152 L42.0522727,21.1424242 C42.1159091,20.5030303 42.1484848,18.5204545 42.1484848,13.819697 C42.1484848,9.79015152 42.1484848,5.9530303 42.0522727,2.53106061 L40.2613636,1.69924242 L40.5492424,1.05984848 C41.380303,0.803787879 43.7469697,0.228787879 44.8984848,0.0681818182 C44.8348485,3.45757576 44.8022727,7.29545455 44.8022727,11.1325758 C44.8022727,14.2666667 44.8340909,20.4060606 44.8984848,21.1098485 L47.2325758,22.069697 Z M55.0356061,23.2848485 C53.3090909,23.1886364 51.8378788,22.805303 50.6863636,21.7181818 C49.2151515,20.3431818 46.9765152,17.5931818 45.4098485,15.4181818 L45.3780303,15.2583333 C46.7530303,13.7234848 48.6075758,11.5484848 49.7909091,9.98181818 L50.3984848,8.31893939 C51.805303,8.31893939 53.980303,8.54242424 54.7159091,8.73484848 L54.2681818,9.47045455 C53.7886364,9.72651515 51.7742424,10.3977273 50.9424242,10.7174242 C49.855303,11.7727273 49.3757576,12.2840909 47.8727273,13.9795455 L47.8727273,14.0757576 C49.7272727,16.6022727 53.6287879,21.2068182 55.2280303,23.1257576 L55.0356061,23.2848485 Z" id="Shape"></path>
                </g>
            </g>
        </g>
    </g>
</svg>